<?xml version="1.0" encoding="utf-8"?>
<!-- Generator: Adobe Illustrator 22.0.0, SVG Export Plug-In . SVG Version: 6.00 Build 0)  -->
<svg version="1.1" id="Layer_1" xmlns="http://www.w3.org/2000/svg" xmlns:xlink="http://www.w3.org/1999/xlink" x="0px" y="0px"
	 viewBox="0 0 24 24" style="enable-background:new 0 0 24 24;" xml:space="preserve">
<path d="M12,0C5.4,0,0,5.4,0,12c0,6.6,5.4,12,12,12c6.6,0,12-5.4,12-12C24,5.4,18.6,0,12,0z M18.5,6.9c-0.6,0-0.9-0.3-1-0.8
	c0-0.2,0-0.3,0.2-0.5c0.1-0.2,0.2-0.3,0.1-0.4c0-0.3-0.5-0.3-0.6-0.3c-1.8,0.1-2.3,2.5-2.7,4.5l-0.2,1c1,0.2,1.8,0,2.2-0.3
	c0.6-0.4-0.2-0.8-0.1-1.2c0.1-0.4,0.5-0.6,0.8-0.7c0.4,0,0.8,0.4,0.7,0.9c0,0.8-1,1.8-3.1,1.8c-0.2,0-0.5,0-0.7,0L13.9,13
	c-0.3,1.6-0.8,3.8-2.4,5.7c-1.4,1.7-2.8,1.9-3.5,1.9c-1.2,0-2-0.6-2-1.4c0-0.8,0.7-1.3,1.2-1.3c0.6,0,1.1,0.4,1.1,1
	c0,0.4-0.2,0.6-0.4,0.7c-0.1,0.1-0.3,0.2-0.3,0.4c0,0.1,0.1,0.3,0.4,0.3c0.5,0,0.8-0.3,1.1-0.4c1.2-1,1.6-2.7,2.2-5.7l0.1-0.7
	c0.2-1,0.4-2.1,0.8-3.2c-0.8-0.6-1.3-1.4-2.4-1.7C9,8.2,8.5,8.4,8.2,8.8c-0.4,0.5-0.3,1.1,0.1,1.5l0.6,0.7c0.8,0.9,1.2,1.5,1,2.4
	c-0.2,1.4-2,2.6-4,1.9c-1.7-0.5-2.1-1.8-1.9-2.4c0.2-0.6,0.7-0.7,1.1-0.6c0.5,0.2,0.7,0.8,0.5,1.2c0,0,0,0.1-0.1,0.2
	c-0.1,0.1-0.2,0.2-0.2,0.4c-0.1,0.4,0.4,0.6,0.7,0.7c0.8,0.2,1.5-0.2,1.7-0.8c0.2-0.6-0.2-1-0.3-1.1l-0.7-0.8
	c-0.3-0.4-1.1-1.4-0.7-2.6c0.1-0.5,0.4-0.9,0.9-1.3c0.9-0.7,1.9-0.8,2.8-0.5c1.2,0.3,1.8,1.1,2.5,1.8c0.4-1.2,1-2.4,1.9-3.5
	C15,5.2,16,4.5,17.2,4.4c1.2,0,2.1,0.5,2.2,1.4C19.4,6.2,19.2,6.9,18.5,6.9z"/>
</svg>
