<?xml version="1.0" encoding="UTF-8" standalone="no"?>
<!-- Generator: Adobe Illustrator 16.0.0, SVG Export Plug-In . SVG Version: 6.00 Build 0)  -->

<svg
   version="1.1"
   id="Layer_1"
   x="0px"
   y="0px"
   width="163.68201"
   height="26.609644"
   viewBox="0 0 163.68201 26.609644"
   enable-background="new 0 0 200 90"
   xml:space="preserve"
   xmlns="http://www.w3.org/2000/svg"
   xmlns:svg="http://www.w3.org/2000/svg"><defs
   id="defs18" />&#10;<g
   id="g18"
   transform="translate(-17.982,-31.569962)">&#10;	<g
   id="g2">&#10;		<path
   fill="#00a79d"
   d="m 33.208,33.416 c 1.726,-0.961 3.6,-1.778 5.608,-1.826 2.364,-0.157 4.681,0.623 6.686,1.833 0.04,2.262 0.007,4.523 0.018,6.784 -1.646,-0.007 -3.295,-0.007 -4.941,0 -0.003,-1.623 0.019,-3.243 -0.018,-4.863 -0.902,-0.231 -1.818,-0.224 -2.709,0.018 -0.033,2.215 -0.007,4.428 -0.018,6.642 2.555,1.298 5.124,2.555 7.683,3.842 0.011,3.416 -0.007,6.832 0.011,10.252 -1.378,1.184 -3.123,1.84 -4.926,1.961 -0.011,-3.354 -0.011,-6.704 0,-10.059 -2.47,-1.202 -4.963,-2.36 -7.429,-3.569 0.035,-3.674 -0.035,-7.346 0.035,-11.015 z"
   id="path1" />&#10;		<path
   fill="#053b59"
   d="m 17.982,32.144 c 1.683,-0.004 3.361,-0.004 5.043,0 -0.022,7.511 0,15.021 -0.011,22.534 0.847,0.165 1.715,0.188 2.562,-0.007 -0.033,-7.51 -0.008,-15.017 -0.011,-22.527 1.639,-0.004 3.277,-0.004 4.915,0 0,7.499 -0.007,15.002 0.004,22.505 0.891,0.173 1.811,0.22 2.687,-0.084 -0.019,-2.478 -0.004,-4.955 -0.011,-7.433 1.624,0.798 3.27,1.542 4.901,2.327 -0.077,2.271 0.128,4.566 -0.096,6.824 -2.69,2.342 -6.649,2.17 -9.86,1.147 -2.826,0.766 -6.069,1.286 -8.756,-0.194 C 18.81,56.843 17.931,56.488 17.993,55.693 17.982,47.842 18,39.991 17.982,32.144 Z"
   id="path2" />&#10;	</g>&#10;	<g
   id="g17">&#10;		<path
   fill="#053b59"
   d="M 66.948,35.888 64.334,53.772 H 61.72 L 60.122,43.649 c -0.015,-0.365 -0.046,-0.909 -0.091,-1.633 0,0.365 -0.031,0.91 -0.091,1.633 L 58.354,53.772 H 55.729 L 53.115,35.888 h 2.705 l 1.381,10.591 c 0.023,0.365 0.053,0.909 0.091,1.632 0.007,-0.365 0.042,-0.909 0.103,-1.632 l 1.541,-10.591 h 2.191 l 1.541,10.591 c 0.022,0.365 0.057,0.909 0.103,1.632 0.007,-0.365 0.038,-0.909 0.091,-1.632 l 1.381,-10.591 z"
   id="path3" />&#10;		<path
   fill="#053b59"
   d="M 75.851,53.75 H 68.444 V 35.888 h 7.339 v 2.362 h -4.668 v 5.217 h 4.018 v 2.316 h -4.018 v 5.604 h 4.736 z"
   id="path4" />&#10;		<path
   fill="#053b59"
   d="m 86.443,52.118 c 0,1.088 -0.545,1.632 -1.633,1.632 H 77.677 V 35.888 h 7.087 c 1.058,0 1.587,0.548 1.587,1.644 v 4.599 c 0,0.609 -0.19,1.081 -0.57,1.415 -0.054,0.046 -0.518,0.339 -1.393,0.879 0.905,0.556 1.385,0.86 1.438,0.913 0.411,0.358 0.617,0.849 0.617,1.473 z m -2.751,-9.656 v -4.325 h -3.344 v 5.238 h 2.054 z m 0.068,9.04 v -5.091 l -1.313,-0.867 h -2.1 v 5.958 z"
   id="path5" />&#10;		<path
   fill="#053b59"
   d="m 95.653,52.323 c 0,0.951 -0.483,1.427 -1.449,1.427 h -4.395 c -0.967,0 -1.449,-0.476 -1.449,-1.427 v -2.477 h 2.499 v 1.94 h 2.294 V 49.96 L 89.147,47.598 C 88.622,47.285 88.36,46.868 88.36,46.342 v -2.693 c 0,-0.951 0.49,-1.427 1.472,-1.427 h 4.349 c 0.967,0 1.449,0.476 1.449,1.427 v 2.316 h -2.477 v -1.78 h -2.294 v 1.666 l 3.995,2.34 c 0.532,0.305 0.799,0.73 0.799,1.278 z"
   id="path6" />&#10;		<path
   fill="#053b59"
   d="m 105.08,52.323 c 0,0.951 -0.484,1.427 -1.449,1.427 h -4.68 c -0.981,0 -1.473,-0.476 -1.473,-1.427 v -8.674 c 0,-0.951 0.491,-1.427 1.473,-1.427 h 4.68 c 0.965,0 1.449,0.476 1.449,1.427 z m -2.557,-0.742 v -7.179 h -2.477 v 7.179 z"
   id="path7" />&#10;		<path
   fill="#053b59"
   d="m 109.6,53.75 h -2.568 V 35.888 h 2.568 z"
   id="path8" />&#10;		<path
   fill="#053b59"
   d="m 119.209,53.75 h -2.602 v -0.399 c -0.602,0.099 -1.205,0.198 -1.814,0.297 -0.738,0.114 -1.348,0.171 -1.826,0.171 -0.951,0 -1.428,-0.476 -1.428,-1.427 V 42.223 h 2.592 v 9.358 l 2.477,-0.057 v -9.302 h 2.602 V 53.75 Z"
   id="path9" />&#10;		<path
   fill="#053b59"
   d="m 126.08,53.75 h -2.898 c -0.967,0 -1.449,-0.476 -1.449,-1.427 V 44.448 H 120.5 v -2.226 h 1.232 v -3.128 h 2.602 v 3.128 h 1.678 v 2.226 h -1.678 v 7.076 h 1.746 z"
   id="path10" />&#10;		<path
   fill="#053b59"
   d="m 130.189,40.567 h -2.613 v -2.693 h 2.613 z m -0.023,13.183 h -2.568 V 42.223 h 2.568 z"
   id="path11" />&#10;		<path
   fill="#053b59"
   d="m 139.709,52.323 c 0,0.951 -0.484,1.427 -1.449,1.427 h -4.68 c -0.982,0 -1.473,-0.476 -1.473,-1.427 v -8.674 c 0,-0.951 0.49,-1.427 1.473,-1.427 h 4.68 c 0.965,0 1.449,0.476 1.449,1.427 z m -2.557,-0.742 v -7.179 h -2.477 v 7.179 z"
   id="path12" />&#10;		<path
   fill="#053b59"
   d="m 149.285,53.75 h -2.625 v -9.348 l -2.455,0.046 v 9.302 h -2.613 V 42.223 h 2.613 v 0.422 c 0.609,-0.099 1.213,-0.193 1.814,-0.285 0.746,-0.122 1.359,-0.183 1.838,-0.183 0.951,0 1.428,0.468 1.428,1.404 z"
   id="path13" />&#10;		<path
   fill="#053b59"
   d="m 158.404,52.323 c 0,0.951 -0.484,1.427 -1.449,1.427 h -4.395 c -0.967,0 -1.449,-0.476 -1.449,-1.427 v -2.477 h 2.498 v 1.94 h 2.295 V 49.96 l -4.006,-2.362 c -0.525,-0.313 -0.787,-0.73 -0.787,-1.256 v -2.693 c 0,-0.951 0.49,-1.427 1.471,-1.427 h 4.35 c 0.967,0 1.449,0.476 1.449,1.427 v 2.316 h -2.477 v -1.78 h -2.295 v 1.666 l 3.996,2.34 c 0.531,0.305 0.799,0.73 0.799,1.278 z"
   id="path14" />&#10;		<path
   fill="#053b59"
   d="m 162.729,53.75 h -2.568 v -2.762 h 2.568 z"
   id="path15" />&#10;		<path
   fill="#053b59"
   d="m 171.984,52.323 c 0,0.951 -0.482,1.427 -1.449,1.427 h -4.531 c -0.98,0 -1.473,-0.476 -1.473,-1.427 v -8.674 c 0,-0.951 0.492,-1.427 1.473,-1.427 h 4.531 c 0.967,0 1.449,0.476 1.449,1.427 v 2.739 h -2.545 v -1.986 h -2.34 v 7.179 h 2.34 v -2.202 h 2.545 z"
   id="path16" />&#10;		<path
   fill="#053b59"
   d="m 181.664,42.223 -2.887,11.379 -1.107,4.36 h -2.672 l 1.199,-4.303 -2.922,-11.437 h 2.682 l 1.518,7.578 1.52,-7.578 h 2.669 z"
   id="path17" />&#10;	</g>&#10;</g>&#10;</svg>
