<?xml version="1.0" encoding="utf-8"?>
<!-- Generator: Adobe Illustrator 21.0.0, SVG Export Plug-In . SVG Version: 6.00 Build 0)  -->
<svg version="1.1" id="Layer_1" xmlns="http://www.w3.org/2000/svg" xmlns:xlink="http://www.w3.org/1999/xlink" x="0px" y="0px"
	 viewBox="0 0 512 512" style="enable-background:new 0 0 512 512;" xml:space="preserve">
<g>
	<path d="M256,0C114.8,0,0,114.8,0,256s114.8,256,256,256s256-114.8,256-256S397.2,0,256,0z M256,39.4
		c119.4,0,216.6,97.2,216.6,216.6S375.4,472.6,256,472.6S39.4,375.4,39.4,256S136.6,39.4,256,39.4z M340.1,139.3
		c-1.4,0-49.5-2.7-77.7,80c-7.6-6.3-43.8-49.4-83.9-19.6c-14.4,10.8-23.9,36.4-2.3,60.5c12.9,13.8,20.3,19.2,16.9,30.2
		c-7,22.6-42.2,12.2-38.7,1c1-3.3,2.7-3.4,4.8-9.9c5.9-19.2-20.6-28.6-26.3-10.3c-3.3,10.7,1.8,30,29.1,38.4
		c32,9.8,59-7.6,62.9-30.3c2.4-14.2-4-24.8-15.8-38.4l-9.6-10.6c-5.8-5.8-7.8-15.7-1.8-23.3c5.1-6.4,12.3-9.1,24.1-5.9
		c17.3,4.7,25,16.7,37.8,26.3c-0.9,3-7.6,24.5-13.8,62.2c-9.2,48.2-16.2,74.6-34.4,89.8c-3.7,2.7-8.9,6.6-16.8,6.8
		c-1.5,0.1-10.7-2.1-1.5-9.5c11.6-6.3,5.3-26.4-11.3-25.8c-7.5,0.2-18.9,7.3-18.4,20.2c0.4,13.3,12.8,23.3,31.5,22.7
		c10-0.3,32.3-4.4,54.3-30.5c30.2-35.4,36-77.5,44.2-122.7c39.2,4.6,58.6-13.5,58.9-27.1c0.4-18.4-21.3-17.8-24.3-4
		c-1.5,6.7,10.2,12.7,1.1,18.6c-6.4,4.2-18,7.1-34.3,4.7c7.8-43.1,14.5-85.4,44.7-86.4c2.1-0.1,9.6,0.1,9.8,5.1
		c0.1,4.1-5.2,7.3-5,14.3c0.3,7.9,6.3,13.1,15,12.8c11.6-0.4,15-11.7,14.8-17.5C373.6,147.4,359.2,138.7,340.1,139.3z"/>
</g>
</svg>
