<?xml version="1.0" encoding="UTF-8" standalone="no"?>
<!-- Generator: Adobe Illustrator 19.0.0, SVG Export Plug-In . SVG Version: 6.00 Build 0)  -->

<svg
   version="1.1"
   id="layer"
   x="0px"
   y="0px"
   viewBox="-153 -46 600.01642 128.81807"
   xml:space="preserve"
   width="600.01642"
   height="128.81807"
   xmlns="http://www.w3.org/2000/svg"
   xmlns:svg="http://www.w3.org/2000/svg"><defs
   id="defs1" />
<style
   type="text/css"
   id="style1">
	.st0{fill:#189EFF;}
</style>
<g
   id="_Gruppe_"
   transform="translate(-24.883567,-259.48357)">
	<g
   id="_Gruppe_2">
		<path
   id="_Pfad_"
   class="st0"
   d="m 48,278.6 c -5.5,-2.3 -10,-4.5 -10,-8.1 0,-2.5 2.8,-4.9 7.6,-4.9 4.1,0.1 8.1,1 11.8,2.7 1.2,0.7 2.8,0.3 3.5,-0.9 0,0 0,-0.1 0.1,-0.1 l 1.9,-3.8 c 0.7,-1.5 0.2,-3.2 -1.2,-4.1 -4.9,-2.8 -10.5,-4.2 -16.1,-4.1 -13.4,0 -18.8,8.1 -18.8,15 0,9.1 7,13.6 15.5,17.4 7.6,3.5 11.8,5.9 11.8,9.5 0,3.1 -2.6,5.4 -7.3,5.4 -6.6,0 -10.5,-2.3 -13.7,-4.1 -1.1,-0.8 -2.6,-0.6 -3.4,0.5 -0.1,0.1 -0.1,0.1 -0.1,0.2 l -2.5,5.1 c -0.5,1.1 -0.1,2.3 0.9,2.9 5.3,3.7 11.7,5.6 18.1,5.6 12.3,0 19.7,-7.5 19.7,-16.1 C 65.7,286.6 58.1,282.9 48,278.6 Z" />
	</g>
	<g
   id="_Gruppe_3">
		<path
   id="_Pfad_2"
   class="st0"
   d="m -25.2,328.4 c -5.6,-4.2 -13.9,-7.4 -22.6,-10.8 -10.4,-4 -22.3,-8.6 -31.1,-15.7 -10,-8 -14.9,-18.1 -14.9,-30.8 -0.2,-11.1 4.9,-21.6 13.7,-28.3 10.1,-7.9 25.3,-12.1 44.1,-12.1 4.9,0 9.9,0.3 14.7,0.9 0.5,0.1 1,-0.3 1,-0.8 0,-0.3 -0.1,-0.6 -0.3,-0.8 -26.5,-23.8 -67.2,-21.6 -91,4.8 -23.8,26.4 -21.6,67.2 4.8,91 11.8,10.6 27.2,16.5 43.1,16.5 13.8,0.1 27.3,-4.4 38.4,-12.6 0.2,-0.2 0.4,-0.4 0.4,-0.7 0.1,-0.1 -0.1,-0.4 -0.3,-0.6 z" />
		<path
   id="_Pfad_3"
   class="st0"
   d="m 0.7,272.1 c 0,-0.2 -0.1,-0.5 -0.3,-0.6 -13.5,-11.2 -24.3,-15.7 -37.6,-15.7 -7,0 -12.5,1.4 -16.1,4.2 -3.1,2.3 -4.8,5.9 -4.8,9.7 0,11.1 13.5,16.1 29.2,22 8.1,3 16.4,6.1 24.1,10.4 0.1,0.1 0.3,0.1 0.4,0.1 0.1,0 0.2,0 0.3,-0.1 0.3,-0.1 0.5,-0.3 0.6,-0.5 3,-7.5 4.5,-15.5 4.5,-23.6 -0.1,-1.9 -0.1,-3.9 -0.3,-5.9 z" />
	</g>
	<path
   id="_Zusammengesetzter_Pfad_"
   class="st0"
   d="m 371.4,312.3 c 1.5,-0.1 2.8,-1.3 2.8,-2.9 v -28 c 0,-14.3 -1.7,-25.4 -20.2,-25.4 -6.7,0 -13.4,1.1 -19.8,3.2 -1.4,0.3 -2.3,1.7 -1.9,3.1 0,0.1 0,0.2 0.1,0.2 l 1.2,4.7 c 0.4,1.6 1.5,2.7 3.2,2.3 5.2,-1.6 10.6,-2.6 16.1,-2.7 7.2,0 9.5,4.1 9.2,13.2 -3.8,-1.1 -7.7,-1.7 -11.6,-1.7 -14.8,0 -23,8 -23,18.6 0,12 7.6,16 18.4,16 8.8,0 17.9,-0.1 21.7,-0.4 z m -9.5,-10.2 c -1.7,2.9 -8,2.1 -13.3,2 -6,-0.1 -9,-2.2 -9,-7.3 0,-6 5.1,-9.5 11.8,-9.5 3.6,-0.1 7.1,0.6 10.5,2 v 12.8 z" />
	<path
   id="_Zusammengesetzter_Pfad_2"
   class="st0"
   d="m 465.4,255.4 c 3.6,0 6.5,-2.9 6.5,-6.6 0,-3.6 -2.9,-6.5 -6.6,-6.5 -3.6,0 -6.5,2.9 -6.5,6.5 0.1,3.6 3,6.6 6.6,6.6 z m 0,-12.1 c 3.1,0 5.6,2.4 5.6,5.5 0,3.1 -2.4,5.6 -5.5,5.6 -3.1,0 -5.6,-2.4 -5.6,-5.5 0,0 0,0 0,-0.1 0,-3 2.5,-5.5 5.5,-5.5 z" />
	<path
   id="_Zusammengesetzter_Pfad_3"
   class="st0"
   d="m 463.2,252.1 h 0.6 c 0.1,0 0.2,-0.1 0.2,-0.2 v -2.3 h 1.4 l 1.2,2.5 c 0,0.1 0.1,0.1 0.2,0.1 h 0.7 c 0.1,0 0.2,-0.1 0.2,-0.2 0,0 0,-0.1 0,-0.1 l -1.3,-2.3 c 0.9,-0.3 1.5,-1.1 1.5,-2.1 0,-1.1 -0.9,-2 -2,-2 0,0 0,0 0,0 h -2.6 c -0.1,0 -0.2,0.1 -0.2,0.2 v 6.2 c -0.1,0.1 0,0.2 0.1,0.2 z m 0.8,-5.6 h 1.7 c 0.6,0 1.2,0.5 1.2,1.2 0,0.7 -0.5,1.2 -1.2,1.2 H 464 Z" />
	<path
   id="_Pfad_4"
   class="st0"
   d="m 102.4,255.4 c -5.8,0.1 -11.4,2.1 -15.9,5.7 v -24.6 c -0.1,-1.4 -1.2,-2.5 -2.6,-2.6 h -6.8 c -1.4,0.1 -2.6,1.2 -2.6,2.6 v 73.8 c 0,1.5 1.2,2.6 2.6,2.6 h 6.6 c 1.4,0.2 2.6,-0.8 2.8,-2.2 0,-0.1 0,-0.3 0,-0.4 v -35.7 c 3,-5.1 8.5,-8.1 14.4,-8 7.2,0 11,5.4 11,14.4 v 29.2 c 0,1.4 1.2,2.6 2.6,2.6 h 6.7 c 1.4,-0.1 2.6,-1.2 2.6,-2.6 v -29 c -0.1,-14.9 -5.8,-25.8 -21.4,-25.8 z" />
	<path
   id="_Zusammengesetzter_Pfad_4"
   class="st0"
   d="m 242.1,282 c -0.7,-18.8 -8.5,-26.6 -26.6,-26.6 -7,0.1 -13.9,1.2 -20.5,3.3 -1.9,0.8 -3.3,1.8 -3.3,3.1 v 70.1 c 0,1.4 1.2,2.6 2.6,2.6 h 5.5 c 1.4,0.2 2.7,-0.9 2.8,-2.3 0,-0.1 0,-0.2 0,-0.3 V 312 c 5.8,0.8 11.6,1.1 17.4,0.9 12.8,-0.4 21.3,-9.7 22,-25.3 0.1,-2.3 0.1,-4.7 0,-7 z m -11.5,5.7 c -0.2,10.6 -3.3,15.3 -12.3,15.8 -4.4,0.2 -14.9,-1 -14.9,-1 -0.4,0 -0.7,-0.3 -0.7,-0.7 V 268 c 0,-0.3 0.2,-0.6 0.6,-0.6 4,-1 8.1,-1.5 12.2,-1.6 10.9,0 14.7,1.6 15.1,15.4 0,1.8 0,4.4 0,6.5 z" />
	<path
   id="_Pfad_5"
   class="st0"
   d="m 321.1,256.6 h -5 c -1.4,0 -3.5,0 -4.2,1.7 l -8.8,31.7 h -0.2 l -14.8,-33.3 c -0.4,-0.9 -1.4,-1.4 -2.3,-1.3 H 285 c -0.9,0 -1.8,0.5 -2.3,1.3 l -15,33.2 h -0.2 l -9.1,-31.6 c -0.3,-1 -1.3,-1.7 -2.3,-1.7 h -7.2 c -1.1,-0.2 -2.1,0.6 -2.3,1.7 -0.1,0.5 0,1 0.3,1.4 l 16.1,51.9 c 0.3,0.9 1.3,1.5 2.3,1.4 h 0.7 c 0.9,0.1 1.8,-0.4 2.1,-1.3 L 285,274.2 h 0.2 l 16.8,37.5 c 0.5,0.8 1.4,1.3 2.3,1.3 h 0.5 c 1.1,0.1 2.1,-0.5 2.5,-1.4 l 15.8,-51.9 c 1,-1.7 -0.1,-3.1 -2,-3.1 z" />
	<path
   id="_Pfad_6"
   class="st0"
   d="m 409.1,256 c -0.3,0 -0.6,0 -0.9,0 -0.5,0 -0.9,0 -1.5,0 -2.9,0 -5.6,0.1 -8.2,0.2 v 0 c -4.9,0.2 -7.9,0.6 -10,0.8 0,0 -1.3,0.1 -2.9,0.3 -0.9,0.1 -1.7,0.5 -2.3,1.2 -0.3,0.4 -0.5,0.8 -0.5,1.3 v 50.5 c 0,1.4 1.2,2.6 2.6,2.6 h 5.5 c 2.3,0 3.8,-0.2 3.8,-2.6 v -34.1 0 -7.8 c 0.1,-0.4 0.4,-0.7 0.8,-0.9 1.3,-0.8 4.6,-1.4 11.1,-1.4 h 1.5 c 1.6,0.1 3.1,0.5 4.6,1 1.1,0.6 2.6,0.2 3.2,-0.9 0.1,-0.1 0.1,-0.2 0.2,-0.4 l 2.9,-4.7 c 1.9,-3.6 -4.7,-5.1 -9.9,-5.1 z" />
	<path
   id="_Zusammengesetzter_Pfad_5"
   class="st0"
   d="m 446.8,255.4 c -16.6,0 -27.5,13.3 -27.5,28.7 0,15.7 10.9,28.9 27.5,28.9 9.2,0 16.4,-3.3 20.4,-6.8 1.7,-1.4 1.2,-2.5 0.2,-3.7 l -3.2,-5 c -0.9,-1.4 -2,-1.1 -3.2,-0.2 -3.8,3.1 -8.6,4.7 -13.5,4.7 -9.7,0 -16.3,-7.6 -16.4,-15 h 38 c 1.3,0 2.4,-1 2.5,-2.3 0.1,-0.9 0.2,-2.9 0.2,-3.8 0.2,-14.9 -10.7,-25.5 -25,-25.5 z m -15,22.6 c 0.8,-6.9 6.1,-12.5 14.8,-12.5 8.1,0 13.4,5.9 13.6,12.5 z" />
	<path
   id="_Zusammengesetzter_Pfad_6"
   class="st0"
   d="m 182.1,272.4 c -1.1,-3.4 -2.9,-6.5 -5.2,-9.1 -2.2,-2.5 -5,-4.5 -8,-5.9 -7.2,-2.7 -15.1,-2.7 -22.3,0 -3.1,1.3 -5.8,3.3 -8,5.9 -2.3,2.7 -4.1,5.8 -5.3,9.1 -1.3,3.8 -1.9,7.7 -1.9,11.7 -0.1,4 0.6,8 1.9,11.9 1.1,3.3 2.9,6.4 5.2,9.1 2.2,2.5 5,4.5 8,5.9 7.2,2.7 15.1,2.7 22.3,0 3.1,-1.3 5.8,-3.3 8,-5.9 2.3,-2.7 4.1,-5.7 5.2,-9.1 1.3,-3.8 1.9,-7.8 1.9,-11.8 0.1,-4 -0.5,-8 -1.8,-11.8 z m -24.7,31.1 c -10,0 -15,-8.4 -15,-18.8 0,-10.4 5,-18.8 15,-18.8 10,0 15,8.4 15,18.8 0,10.4 -5.1,18.8 -15,18.8 z" />
</g>
</svg>
